<?xml version="1.0" encoding="UTF-8" standalone="no"?>
<!DOCTYPE svg PUBLIC "-//W3C//DTD SVG 1.1//EN" "http://www.w3.org/Graphics/SVG/1.1/DTD/svg11.dtd">
<svg width="100%" height="100%" viewBox="0 0 382 382" version="1.1" xmlns="http://www.w3.org/2000/svg" xmlns:xlink="http://www.w3.org/1999/xlink" xml:space="preserve" xmlns:serif="http://www.serif.com/" style="fill-rule:evenodd;clip-rule:evenodd;stroke-linecap:round;stroke-linejoin:round;">
    <g transform="matrix(1.16097,0,0,1.17844,-61.4899,-68.1649)">
        <rect x="52.964" y="258.108" width="329.036" height="123.892" style="fill:rgb(248,249,250);"/>
    </g>
    <g transform="matrix(0.802311,0,0,1.43132,13.937,-83.4358)">
        <rect x="-17.371" y="58.293" width="476.124" height="164.883" style="fill:rgb(52,58,64);"/>
    </g>
    <g transform="matrix(9.63819,0,0,9.63819,-1011.12,-2309.83)">
        <g transform="matrix(1,0,0,1,106.453,242.06)">
            <path d="M20,12L20,22L4,22L4,12" style="fill:none;fill-rule:nonzero;stroke:rgb(248,249,250);stroke-width:2px;"/>
        </g>
        <g transform="matrix(1,0,0,1,106.453,242.06)">
            <rect x="2" y="7" width="20" height="5" style="fill:none;stroke:rgb(248,249,250);stroke-width:2px;"/>
        </g>
        <g transform="matrix(1,0,0,1,106.453,242.06)">
            <path d="M12,22L12,7" style="fill:none;fill-rule:nonzero;stroke:rgb(248,249,250);stroke-width:2px;"/>
        </g>
        <g transform="matrix(1,0,0,1,106.453,242.06)">
            <path d="M12,7L7.5,7C6.129,7 5,5.871 5,4.5C5,3.129 6.129,2 7.5,2C11,2 12,7 12,7Z" style="fill:none;fill-rule:nonzero;stroke:rgb(248,249,250);stroke-width:2px;"/>
        </g>
        <g transform="matrix(1,0,0,1,106.453,242.06)">
            <path d="M12,7L16.5,7C17.871,7 19,5.871 19,4.5C19,3.129 17.871,2 16.5,2C13,2 12,7 12,7Z" style="fill:none;fill-rule:nonzero;stroke:rgb(248,249,250);stroke-width:2px;"/>
        </g>
    </g>
</svg>
